Coordinates
version=1
nRows=29
nColumns=24
inDegrees=yes

Units are S.I. units (second, meters, Newtons, ...)
Angles are in degrees.

endheader
time	pelvis_tilt	pelvis_list	pelvis_rotation	pelvis_tx	pelvis_ty	pelvis_tz	hip_flexion_r	hip_adduction_r	hip_rotation_r	knee_angle_r	ankle_angle_r	subtalar_angle_r	mtp_angle_r	hip_flexion_l	hip_adduction_l	hip_rotation_l	knee_angle_l	ankle_angle_l	subtalar_angle_l	mtp_angle_l	lumbar_extension	lumbar_bending	lumbar_rotation
      0.57100000	      0.42821899	      3.66300838	      1.11073785	     -0.84768707	      0.99701157	      0.27283941	     21.52386175	     -2.66919428	     -2.47637478	      0.98810204	      2.85225087	    -12.37073750	      8.35215228	    -18.89474048	      4.87180106	      6.78896655	     -4.62299209	      9.17090386	    -12.54413340	      5.05306624	     -4.73698117	     -4.87553483	     -3.86953387
      0.57516667	      0.43643429	      3.56609460	      1.15752904	     -0.84152170	      0.99645229	      0.27336183	     21.54869584	     -2.55824055	     -2.38487060	      0.59601602	      2.89080948	    -12.51071465	      8.35023916	    -19.01699994	      4.72716277	      6.83845239	     -5.13440120	      9.17327292	    -12.55597103	      5.06423665	     -4.71284183	     -4.73149598	     -3.89811662
      0.57933333	      0.37002687	      3.47860581	      1.21814902	     -0.83533835	      0.99581827	      0.27391655	     21.63023163	     -2.45456577	     -2.15795955	      0.19390077	      2.79039977	    -12.91555641	      8.34759028	    -18.96380410	      4.58060066	      6.66106471	     -5.83746477	      9.35007503	    -12.10321267	      5.16027492	     -4.57249846	     -4.59347459	     -4.07031105
      0.58350000	      0.36462100	      3.36150529	      1.26198382	     -0.82909528	      0.99530103	      0.27448550	     21.65078115	     -2.31227760	     -1.99557577	     -0.27258168	      2.68964653	    -13.21572933	      8.35945819	    -18.98688453	      4.41014325	      6.53029755	     -6.52412053	      9.45031032	    -11.78268548	      5.29195163	     -4.51052491	     -4.41839748	     -4.13372964
      0.58766667	      0.39430339	      3.22474171	      1.29528553	     -0.82279557	      0.99485452	      0.27506853	     21.62668500	     -2.14343581	     -1.84741993	     -0.77274659	      2.55333034	    -13.50192565	      8.41569787	    -19.02838697	      4.21826499	      6.33005636	     -7.24821484	      9.53369005	    -11.41147374	      5.62198522	     -4.48469766	     -4.21482716	     -4.17692760
      0.59183333	      0.33822897	      3.10050829	      1.34326565	     -0.81646642	      0.99434257	      0.27564991	     21.70291863	     -1.98869520	     -1.71057752	     -1.33338484	      2.36040491	    -13.80354233	      8.43810737	    -18.96626346	      4.04846738	      6.27558583	     -7.99275149	      9.54522285	    -11.27735726	      5.73648078	     -4.35357762	     -4.02862483	     -4.25544300
      0.59600000	      0.33245223	      2.95889473	      1.37795709	     -0.81009981	      0.99392382	      0.27627206	     21.70701488	     -1.80589533	     -1.55841726	     -1.88747064	      2.07392093	    -14.17830963	      8.47957588	    -18.91419159	      3.85115647	      6.04905661	     -8.82167724	      9.57400633	    -10.88391383	      5.92087971	     -4.27137008	     -3.82786655	     -4.33904954
      0.60016667	      0.33928495	      2.82287877	      1.40376616	     -0.80371262	      0.99354816	      0.27692763	     21.70179172	     -1.62274284	     -1.42504119	     -2.47735784	      1.75927181	    -14.51156831	      8.54056736	    -18.84236276	      3.65984495	      5.79183529	     -9.71302370	      9.55672702	    -10.47852419	      6.16769627	     -4.20625087	     -3.63550177	     -4.38358165
      0.60433333	      0.35849769	      2.66308085	      1.42380264	     -0.79726844	      0.99322033	      0.27758931	     21.67621897	     -1.41113652	     -1.32383666	     -3.08079773	      1.41158649	    -14.82065548	      8.60750719	    -18.77413705	      3.44556150	      5.53290298	    -10.62702288	      9.50637238	    -10.11444833	      6.43743590	     -4.15016774	     -3.40764138	     -4.42987114
      0.60850000	      0.39026684	      2.53328793	      1.42873749	     -0.79085998	      0.99293249	      0.27831555	     21.65315203	     -1.22065398	     -1.20088085	     -3.72910321	      1.06445770	    -15.16842548	      8.73103658	    -18.67305869	      3.25521174	      5.18335402	    -11.61759049	      9.44047392	     -9.61031807	      6.92932389	     -4.11827922	     -3.23458205	     -4.46843349
      0.61266667	      0.41087617	      2.36347385	      1.43941635	     -0.78434614	      0.99267134	      0.27900998	     21.62414210	     -0.99482200	     -1.17053908	     -4.36421232	      0.66229117	    -15.39627100	     10.17133571	    -18.54444265	      3.02119532	      4.82961040	    -12.62814971	      9.20808132	     -9.29370928	     12.91722862	     -4.04709022	     -2.98888816	     -4.44589021
      0.61683333	      0.42265957	      2.20879028	      1.45125147	     -0.77785596	      0.99243550	      0.27974093	     21.59434097	     -0.77997083	     -1.09151336	     -4.98905725	      0.22090564	    -15.69875131	     10.16008555	    -18.36649532	      2.80256195	      4.49794286	    -13.72498548	      9.02720075	     -8.91261749	     12.97855142	     -3.97123665	     -2.77907182	     -4.51756775
      0.62100000	      0.45649534	      2.04541244	      1.44260430	     -0.77135962	      0.99225100	      0.28052184	     21.55409868	     -0.54836393	     -1.04098433	     -5.65005961	     -0.20106635	    -15.94915203	     10.15920676	    -18.18152825	      2.56855582	      4.08780090	    -14.87349491	      8.81603871	     -8.43331032	     13.11050003	     -3.92618343	     -2.55748532	     -4.52405754
      0.62516667	      0.49648047	      1.88508238	      1.42070505	     -0.76486638	      0.99210111	      0.28133050	     21.51933719	     -0.31640878	     -1.00875514	     -6.34223742	     -0.61317556	    -16.17123803	     10.16734560	    -17.97132728	      2.33373369	      3.64533450	    -16.07203962	      8.56099208	     -7.93647636	     13.33076015	     -3.88956467	     -2.33436704	     -4.52551255
      0.62933333	      0.52577916	      1.72386967	      1.39889172	     -0.75837478	      0.99197160	      0.28216292	     21.49151539	     -0.08415635	     -0.99046079	     -7.03239397	     -1.01509225	    -16.35350831	     10.18066399	    -17.70884329	      2.08900468	      3.18007999	    -17.34056446	      8.24197527	     -7.44677679	     13.62956106	     -3.83740661	     -2.11459366	     -4.51455137
      0.63350000	      0.56851234	      1.55835620	      1.37137194	     -0.75189763	      0.99188999	      0.28302719	     21.44934704	      0.15371468	     -0.98955061	     -7.72780241	     -1.39621907	    -16.49171047	     10.19458158	    -17.42604304	      1.82971564	      2.69184857	    -18.66497989	      7.86526499	     -6.95471923	     13.97437839	     -3.80024980	     -1.89448415	     -4.49433834
      0.63766667	      0.61467436	      1.39636499	      1.33351281	     -0.74544847	      0.99183955	      0.28392505	     21.41228237	      0.39007481	     -0.99671909	     -8.44474496	     -1.73890112	    -16.59834481	     10.20772722	    -17.11110148	      1.56547667	      2.18130786	    -20.04340067	      7.42856376	     -6.45765918	     14.39742931	     -3.77215415	     -1.67900369	     -4.46081495
      0.64183333	      0.65735330	      1.23390795	      1.29259919	     -0.73902218	      0.99181289	      0.28485374	     21.38318531	      0.62708685	     -1.01846053	     -9.17540767	     -2.04120036	    -16.66425989	     10.21781903	    -16.75543844	      1.28935617	      1.66158336	    -21.47968298	      6.93557017	     -5.97269833	     14.87287728	     -3.74210921	     -1.46895616	     -4.42010128
      0.64600000	      0.71645362	      1.04569648	      1.25606390	     -0.73259167	      0.99186894	      0.28581396	     21.29132963	      0.89705215	     -0.98096706	     -9.81563722	     -2.41998009	    -16.89231434	     10.27351089	    -16.39489629	      0.96951456	      1.13756996	    -22.92253702	      6.23289921	     -5.67659011	     22.25129692	     -3.72517235	     -1.21806275	     -4.36465659
      0.65016667	      0.78554844	      0.91465352	      1.18586375	     -0.72626346	      0.99191945	      0.28679807	     21.27389560	      1.10043466	     -1.06103836	    -10.63515741	     -2.50828713	    -16.69811816	     10.27011135	    -16.01215965	      0.71591856	      0.62336010	    -24.42453758	      5.58277046	     -5.25089792	     22.31583986	     -3.73689477	     -1.05576305	     -4.31571581
      0.65433333	      0.83700499	      0.76350424	      1.13114774	     -0.71995280	      0.99199714	      0.28779820	     21.23461234	      1.32666062	     -1.09247496	    -11.37235075	     -2.65576954	    -16.66154221	     10.25915414	    -15.57081723	      0.42531057	      0.13005774	    -25.98418482	      4.89004907	     -4.88474258	     22.41557935	     -3.71981492	     -0.86656604	     -4.25191483
      0.65850000	      0.89107381	      0.60829185	      1.07474792	     -0.71369090	      0.99210424	      0.28882257	     21.19200243	      1.55799620	     -1.12427022	    -12.11242387	     -2.75368039	    -16.61738733	     10.24340384	    -15.10216476	      0.11708789	     -0.36174422	    -27.57974171	      4.13878542	     -4.53721121	     22.53895683	     -3.71666087	     -0.67564480	     -4.18408472
      0.66266667	      0.95566254	      0.45557598	      1.03785150	     -0.70751208	      0.99225182	      0.28984073	     21.14067911	      1.78111498	     -1.17977570	    -12.86316913	     -2.78231330	    -16.61058611	     10.19157644	    -14.60319002	     -0.20168186	     -0.79912836	    -29.22526617	      3.38088619	     -4.19139095	     22.86784289	     -3.74690185	     -0.48320119	     -4.09772085
      0.66683333	      0.99593735	      0.31477018	      0.96683764	     -0.70137399	      0.99238619	      0.29089694	     21.11557324	      2.00007566	     -1.20649919	    -13.60672252	     -2.80680715	    -16.51161010	     10.15711902	    -14.06549483	     -0.50034918	     -1.23381226	    -30.87878766	      2.55423829	     -3.98791829	     23.05791244	     -3.73972131	     -0.31098421	     -4.03348694
      0.67100000	      1.04483369	      0.17285895	      0.91683039	     -0.69529250	      0.99257088	      0.29195117	     21.06171523	      2.21602530	     -1.24299748	    -14.31622395	     -2.75959246	    -16.43332520	     10.11800987	    -13.50465032	     -0.81699708	     -1.63444997	    -32.56020880	      1.71428538	     -3.80291335	     23.23909269	     -3.74967126	     -0.14145333	     -3.96131621
      0.67516667	      1.08573694	      0.02614912	      0.87639291	     -0.68927186	      0.99277285	      0.29298960	     21.00045162	      2.43465404	     -1.28187301	    -14.99440946	     -2.66829005	    -16.35312413	     10.07262147	    -12.90752601	     -1.14269940	     -1.98887812	    -34.26980835	      0.85875950	     -3.68059352	     23.40886205	     -3.75517440	      0.03319817	     -3.89220805
      0.67933333	      1.12667018	     -0.10895224	      0.83926567	     -0.68331683	      0.99300968	      0.29403140	     20.92676161	      2.64092728	     -1.31885871	    -15.64722405	     -2.54168451	    -16.27354073	     10.02540704	    -12.29040196	     -1.45838478	     -2.30540836	    -35.98024610	     -0.00285321	     -3.63588918	     23.54623996	     -3.76841701	      0.19559184	     -3.82493366
      0.68350000	      1.17374638	     -0.24984916	      0.81102127	     -0.67742411	      0.99327751	      0.29506805	     20.83081250	      2.85278550	     -1.36138628	    -16.26916073	     -2.37409215	    -16.19364397	      9.97359112	    -11.66061957	     -1.78417514	     -2.58344073	    -37.69872424	     -0.84076821	     -3.64380047	     23.65317016	     -3.79260031	      0.35434377	     -3.75848924
      0.68766667	      1.20197020	     -0.38398356	      0.79813968	     -0.67158949	      0.99355753	      0.29608426	     20.73204492	      3.05425956	     -1.40646292	    -16.84447186	     -2.17158442	    -16.12335618	      9.91288407	    -10.98405058	     -2.10416458	     -2.81384213	    -39.42834633	     -1.67362155	     -3.72985099	     23.73010703	     -3.79992865	      0.49988730	     -3.70073562
